<svg width="29" height="29" viewBox="0 0 29 29" fill="none" xmlns="http://www.w3.org/2000/svg">
<path d="M2.41667 27.7917V25.3751H3.625C4.26944 25.3751 4.89375 25.2744 5.49792 25.073C6.10208 24.8716 6.68611 24.5695 7.25 24.1667C7.81389 24.5695 8.39792 24.8716 9.00208 25.073C9.60625 25.2744 10.2306 25.3751 10.875 25.3751C11.5194 25.3751 12.1488 25.2744 12.763 25.073C13.3773 24.8716 13.9562 24.5695 14.5 24.1667C15.0639 24.5695 15.6479 24.8716 16.2521 25.073C16.8562 25.2744 17.4806 25.3751 18.125 25.3751C18.7694 25.3751 19.3988 25.2744 20.013 25.073C20.6273 24.8716 21.2062 24.5695 21.75 24.1667C22.2937 24.5695 22.8727 24.8716 23.487 25.073C24.1012 25.2744 24.7306 25.3751 25.375 25.3751H26.5833V27.7917H25.375C24.7507 27.7917 24.1365 27.7162 23.5323 27.5652C22.9281 27.4141 22.334 27.1876 21.75 26.8855C21.166 27.1876 20.5719 27.4141 19.9677 27.5652C19.3635 27.7162 18.7493 27.7917 18.125 27.7917C17.5007 27.7917 16.8865 27.7162 16.2823 27.5652C15.6781 27.4141 15.084 27.1876 14.5 26.8855C13.916 27.1876 13.3219 27.4141 12.7177 27.5652C12.1135 27.7162 11.4993 27.7917 10.875 27.7917C10.2507 27.7917 9.63646 27.7162 9.03229 27.5652C8.42812 27.4141 7.83403 27.1876 7.25 26.8855C6.66597 27.1876 6.07187 27.4141 5.46771 27.5652C4.86354 27.7162 4.24931 27.7917 3.625 27.7917H2.41667ZM10.875 22.9584C10.15 22.9584 9.47535 22.7872 8.85104 22.4449C8.22674 22.1025 7.69306 21.6695 7.25 21.1459C6.90764 21.5084 6.53003 21.8357 6.11719 22.1277C5.70434 22.4197 5.24618 22.6463 4.74271 22.8074C3.91701 22.5858 3.08125 22.324 2.23542 22.022C1.38958 21.7199 0.644444 21.4279 0 21.1459C1.0875 20.6827 2.41667 20.2095 3.9875 19.7261C5.55833 19.2428 7.09896 18.8803 8.60938 18.6386L10.2406 13.5938C10.4622 12.9091 10.88 12.456 11.4943 12.2345C12.1085 12.0129 12.6875 12.0431 13.2312 12.3251L16.3125 13.8959L19.726 12.0834L21.7198 7.61258L21.1156 6.01154L22.7167 2.41675L26.5833 4.13862L24.9823 7.73341L23.3812 8.33758L18.9104 18.4272C20.7833 18.6487 22.6613 19.0313 24.5443 19.5751C26.4273 20.1188 27.9125 20.6424 29 21.1459C28.416 21.4077 27.6759 21.6947 26.7797 22.0069C25.8835 22.319 25.0427 22.5858 24.2573 22.8074C23.7538 22.6664 23.2957 22.4499 22.8828 22.1579C22.47 21.8659 22.0924 21.5286 21.75 21.1459C21.3069 21.6695 20.7733 22.1025 20.149 22.4449C19.5247 22.7872 18.85 22.9584 18.125 22.9584C17.4 22.9584 16.7253 22.7872 16.101 22.4449C15.4767 22.1025 14.9431 21.6695 14.5 21.1459C14.0569 21.6695 13.5233 22.1025 12.899 22.4449C12.2747 22.7872 11.6 22.9584 10.875 22.9584ZM17.0073 18.2157L18.1552 15.648L16.3125 16.6147L14.1979 15.5272L13.3521 18.1251H14.5C14.9229 18.1251 15.3458 18.1301 15.7687 18.1402C16.1917 18.1503 16.6045 18.1754 17.0073 18.2157ZM14.5 11.4792C13.8354 11.4792 13.2665 11.2426 12.7932 10.7694C12.32 10.2961 12.0833 9.72716 12.0833 9.06258C12.0833 8.398 12.32 7.82907 12.7932 7.35581C13.2665 6.88255 13.8354 6.64591 14.5 6.64591C15.1646 6.64591 15.7335 6.88255 16.2068 7.35581C16.68 7.82907 16.9167 8.398 16.9167 9.06258C16.9167 9.72716 16.68 10.2961 16.2068 10.7694C15.7335 11.2426 15.1646 11.4792 14.5 11.4792Z" fill="#FFB30D"/>
</svg>
