<svg width="29" height="29" viewBox="0 0 29 29" fill="none" xmlns="http://www.w3.org/2000/svg">
<path d="M2.41602 19.0313C2.41602 19.0313 4.58497 18.1251 8.45768 18.1251C14.4993 18.1251 19.3327 21.7501 26.5827 21.7501M2.41602 25.3751H26.5827M17.5202 11.4792L19.9368 20.5417M14.8449 3.62508L14.4993 2.41675M15.2171 3.90058C11.7782 4.88658 9.54397 8.27958 9.67085 11.9324C9.69743 12.6912 9.71072 13.0706 10.0346 13.2374C10.3596 13.4065 10.6955 13.1685 11.3686 12.6936L12.8693 11.6327C13.0904 11.4746 13.3592 11.3974 13.6306 11.414L17.1553 11.64L20.1012 9.558C20.3225 9.40031 20.5912 9.32351 20.8624 9.3405L22.7015 9.45771C23.4906 9.50846 23.8857 9.53383 24.0802 9.23054C24.2748 8.92725 24.1165 8.59858 23.7987 7.94125C22.2158 4.67633 18.6753 2.90854 15.2171 3.90058Z" stroke="#FFB30D" stroke-width="1.8125" stroke-linecap="round" stroke-linejoin="round"/>
</svg>
