<svg width="29" height="29" viewBox="0 0 29 29" fill="none" xmlns="http://www.w3.org/2000/svg">
<path d="M12.1854 1.91038C12.3054 1.96983 12.4106 2.05511 12.4937 2.1601C12.5767 2.26509 12.6355 2.38717 12.6657 2.51757C12.6984 2.66075 13.5938 6.49238 13.5938 9.0625C13.5938 10.7844 12.7926 12.3196 11.5456 13.3146C11.0925 13.6771 10.875 14.0723 10.875 14.4021V15.283C10.875 15.3253 10.8774 15.3652 10.8823 15.4026C10.9439 15.8521 11.1668 17.5214 11.3752 19.2524C11.5801 20.9507 11.7812 22.8031 11.7812 23.5625C11.7812 24.5239 11.3993 25.4459 10.7195 26.1258C10.0397 26.8056 9.11766 27.1875 8.15625 27.1875C7.19484 27.1875 6.27281 26.8056 5.59299 26.1258C4.91317 25.4459 4.53125 24.5239 4.53125 23.5625C4.53125 22.8013 4.73244 20.9525 4.93725 19.2524C5.14569 17.5214 5.36863 15.8521 5.43025 15.4026L5.4375 15.283V14.4021C5.4375 14.0723 5.22 13.6771 4.76688 13.3146C4.12794 12.8053 3.612 12.1585 3.25742 11.4224C2.90283 10.6862 2.71871 9.87961 2.71875 9.0625C2.71875 6.50144 3.60688 2.68975 3.64675 2.51938C3.69387 2.3179 3.80786 2.13833 3.97014 2.00996C4.13241 1.88159 4.3334 1.81198 4.54031 1.8125C5.04781 1.8125 5.45925 2.22394 5.45925 2.73144V8.16532C5.4521 8.28771 5.47012 8.41028 5.51219 8.52544C5.55426 8.6406 5.61948 8.74592 5.70384 8.8349C5.7882 8.92387 5.8899 8.99461 6.00266 9.04275C6.11542 9.09088 6.23685 9.1154 6.35945 9.11478C6.48206 9.11416 6.60323 9.08842 6.7155 9.03914C6.82777 8.98986 6.92875 8.9181 7.0122 8.82827C7.09565 8.73845 7.15981 8.63248 7.20071 8.5169C7.24161 8.40131 7.25838 8.27857 7.25 8.15625V2.71875C7.25 2.4784 7.34548 2.24789 7.51543 2.07794C7.68539 1.90798 7.9159 1.8125 8.15625 1.8125C8.3966 1.8125 8.62711 1.90798 8.79707 2.07794C8.96702 2.24789 9.0625 2.4784 9.0625 2.71875V8.20338C9.06755 8.44133 9.16691 8.66752 9.33874 8.83221C9.51056 8.9969 9.74077 9.08658 9.97872 9.08153C10.2167 9.07649 10.4429 8.97712 10.6076 8.8053C10.7722 8.63347 10.8619 8.40326 10.8569 8.16532V2.72782C10.8569 2.22213 11.2665 1.8125 11.774 1.8125C11.8139 1.8125 11.9915 1.8125 12.1854 1.91038ZM16.3125 9.96875C16.3125 7.80558 17.1718 5.73101 18.7014 4.20141C20.231 2.67182 22.3056 1.8125 24.4688 1.8125C24.7091 1.8125 24.9396 1.90798 25.1096 2.07794C25.2795 2.24789 25.375 2.4784 25.375 2.71875V13.5448L25.4094 13.8656C25.5536 15.2184 25.692 16.5717 25.8245 17.9256C26.0474 20.2021 26.2812 22.7541 26.2812 23.5625C26.2812 24.5239 25.8993 25.4459 25.2195 26.1258C24.5397 26.8056 23.6177 27.1875 22.6562 27.1875C21.6948 27.1875 20.7728 26.8056 20.093 26.1258C19.4132 25.4459 19.0312 24.5239 19.0312 23.5625C19.0312 22.7541 19.2651 20.2021 19.488 17.9256C19.6022 16.7711 19.7164 15.6654 19.8016 14.8462L19.8378 14.5H18.125C17.6443 14.5 17.1833 14.309 16.8434 13.9691C16.5035 13.6292 16.3125 13.1682 16.3125 12.6875V9.96875Z" fill="#FFB30D"/>
</svg>
